<svg width="35" height="35" viewBox="0 0 35 35" fill="none" xmlns="http://www.w3.org/2000/svg">
<g clip-path="url(#clip0_86_70)">
<path d="M27.579 35.0071H7.37844C6.2546 35.0069 5.14566 34.75 4.1362 34.256C3.12675 33.7621 2.24344 33.0441 1.55365 32.1568C0.86386 31.2696 0.385816 30.2365 0.15598 29.1365C-0.0738563 28.0364 -0.0494137 26.8983 0.227443 25.8091L4.32142 9.09656C4.39515 8.79776 4.56901 8.53323 4.81404 8.347C5.05907 8.16078 5.36049 8.0641 5.66812 8.07306H28.2254C28.5225 8.05947 28.8157 8.14457 29.0593 8.3151C29.3029 8.48563 29.4832 8.73199 29.5721 9.01576L34.6626 25.3917C35.0107 26.5039 35.0908 27.6827 34.8966 28.8318C34.7023 29.981 34.2392 31.0679 33.5449 32.004C32.862 32.944 31.9642 33.707 30.9263 34.2295C29.8885 34.7519 28.7408 35.0185 27.579 35.0071ZM6.67815 10.7665L2.78618 26.4556C2.61286 27.1478 2.59898 27.8703 2.74556 28.5686C2.89215 29.267 3.19538 29.9229 3.63239 30.487C4.0694 31.0511 4.62879 31.5086 5.26836 31.8251C5.90794 32.1415 6.61101 32.3086 7.32457 32.3137H27.5251C28.258 32.3149 28.9807 32.1422 29.6339 31.8097C30.2871 31.4773 30.8521 30.9946 31.2824 30.4014C31.7252 29.8048 32.0206 29.1119 32.1447 28.3794C32.2687 27.6468 32.2178 26.8954 31.9962 26.1862L27.2558 10.7665H6.67815Z" fill="#C14231"/>
<path d="M22.8391 18.8467C22.4819 18.8467 22.1394 18.7048 21.8868 18.4523C21.6343 18.1997 21.4924 17.8572 21.4924 17.5V6.72637C21.4924 5.65487 21.0667 4.62725 20.3091 3.86959C19.5514 3.11192 18.5238 2.68627 17.4523 2.68627C16.3808 2.68627 15.3531 3.11192 14.5955 3.86959C13.8378 4.62725 13.4122 5.65487 13.4122 6.72637V17.5C13.4122 17.8572 13.2703 18.1997 13.0177 18.4523C12.7652 18.7048 12.4226 18.8467 12.0655 18.8467C11.7083 18.8467 11.3657 18.7048 11.1132 18.4523C10.8606 18.1997 10.7188 17.8572 10.7188 17.5V6.72637C10.7188 4.94054 11.4282 3.22784 12.691 1.96506C13.9537 0.702281 15.6664 -0.00714111 17.4523 -0.00714111C19.2381 -0.00714111 20.9508 0.702281 22.2136 1.96506C23.4764 3.22784 24.1858 4.94054 24.1858 6.72637V17.5C24.1858 17.8572 24.0439 18.1997 23.7913 18.4523C23.5388 18.7048 23.1962 18.8467 22.8391 18.8467Z" fill="#C14231"/>
</g>
<defs>
<clipPath id="clip0_86_70">
<rect width="35" height="35" fill="white"/>
</clipPath>
</defs>
</svg>
