<svg width="20" height="26" viewBox="0 0 20 26" fill="none" xmlns="http://www.w3.org/2000/svg">
<path d="M10 0C4.4776 0 0 4.36566 0 9.75C0 13.681 1.40469 14.7789 8.97396 25.477C9.47036 26.1762 10.5318 26.1762 11.0281 25.477C18.5938 14.7773 20 13.6805 20 9.75C20 4.36566 15.5208 0 10 0ZM10 13.7668C7.70156 13.7668 5.83333 11.9448 5.83333 9.7043C5.83333 7.46383 7.70312 5.6418 10 5.6418C12.2969 5.6418 14.1667 7.46383 14.1667 9.7043C14.1667 11.9448 12.2969 13.7668 10 13.7668Z" fill="#C14231"/>
</svg>
