<svg width="187" height="63" viewBox="0 0 187 63" fill="none" xmlns="http://www.w3.org/2000/svg">
<path fill-rule="evenodd" clip-rule="evenodd" d="M85 5C81.134 5 78 8.134 78 12V21H84V12C84 11.4477 84.4477 11 85 11H105C105.552 11 106 11.4477 106 12V21H112V12C112 8.13401 108.866 5 105 5H85ZM112 44H106V50C106 50.5523 105.552 51 105 51H85C84.4477 51 84 50.5523 84 50V44H78V50C78 53.866 81.134 57 85 57H105C108.866 57 112 53.866 112 50V44Z" fill="#C14231"/>
<path d="M1.17188 41V22.8182H9.01989C10.3693 22.8182 11.5501 23.0845 12.5621 23.6172C13.5742 24.1499 14.3614 24.8986 14.9237 25.8633C15.4859 26.828 15.767 27.9555 15.767 29.2457C15.767 30.5478 15.477 31.6753 14.897 32.6282C14.3229 33.5811 13.515 34.315 12.4734 34.8299C11.4376 35.3448 10.2273 35.6023 8.84233 35.6023H4.15483V31.767H7.84801C8.42803 31.767 8.92223 31.6664 9.33061 31.4652C9.74491 31.258 10.0616 30.9651 10.2805 30.5863C10.5054 30.2075 10.6179 29.7607 10.6179 29.2457C10.6179 28.7249 10.5054 28.281 10.2805 27.9141C10.0616 27.5412 9.74491 27.2571 9.33061 27.0618C8.92223 26.8606 8.42803 26.7599 7.84801 26.7599H6.10795V41H1.17188ZM17.5781 41V22.8182H22.5142V29.9205H29.0483V22.8182H33.9844V41H29.0483V33.8977H22.5142V41H17.5781ZM53.9418 31.9091C53.9418 33.9332 53.5482 35.6407 52.761 37.0316C51.9738 38.4165 50.9115 39.4671 49.5739 40.1832C48.2363 40.8935 46.7448 41.2486 45.0994 41.2486C43.4422 41.2486 41.9448 40.8905 40.6072 40.1744C39.2756 39.4523 38.2161 38.3988 37.429 37.0138C36.6477 35.623 36.2571 33.9214 36.2571 31.9091C36.2571 29.8849 36.6477 28.1804 37.429 26.7955C38.2161 25.4046 39.2756 24.354 40.6072 23.6438C41.9448 22.9277 43.4422 22.5696 45.0994 22.5696C46.7448 22.5696 48.2363 22.9277 49.5739 23.6438C50.9115 24.354 51.9738 25.4046 52.761 26.7955C53.5482 28.1804 53.9418 29.8849 53.9418 31.9091ZM48.8636 31.9091C48.8636 30.8201 48.7186 29.9027 48.4286 29.157C48.1445 28.4053 47.7214 27.8371 47.1591 27.4524C46.6027 27.0618 45.9162 26.8665 45.0994 26.8665C44.2827 26.8665 43.5932 27.0618 43.0309 27.4524C42.4746 27.8371 42.0514 28.4053 41.7614 29.157C41.4773 29.9027 41.3352 30.8201 41.3352 31.9091C41.3352 32.9981 41.4773 33.9184 41.7614 34.6701C42.0514 35.4158 42.4746 35.984 43.0309 36.3746C43.5932 36.7594 44.2827 36.9517 45.0994 36.9517C45.9162 36.9517 46.6027 36.7594 47.1591 36.3746C47.7214 35.984 48.1445 35.4158 48.4286 34.6701C48.7186 33.9184 48.8636 32.9981 48.8636 31.9091ZM71.9571 22.8182V41H67.8378L61.2682 31.4474H61.1617V41H56.2256V22.8182H60.4159L66.879 32.3352H67.021V22.8182H71.9571ZM74.292 41V22.8182H87.3957V26.7955H79.2281V29.9205H86.721V33.8977H79.2281V37.0227H87.3602V41H74.292Z" fill="#1C1C1C"/>
<path d="M111.973 28.5C111.926 27.9081 111.704 27.4465 111.307 27.1151C110.917 26.7836 110.322 26.6179 109.523 26.6179C109.014 26.6179 108.596 26.68 108.271 26.8043C107.951 26.9227 107.715 27.0855 107.561 27.2926C107.407 27.4998 107.327 27.7365 107.321 28.0028C107.309 28.2218 107.348 28.4201 107.436 28.5977C107.531 28.7693 107.679 28.9261 107.88 29.0682C108.082 29.2043 108.339 29.3286 108.653 29.4411C108.966 29.5535 109.339 29.6541 109.771 29.7429L111.263 30.0625C112.269 30.2756 113.13 30.5567 113.846 30.9059C114.562 31.2551 115.148 31.6664 115.604 32.1399C116.06 32.6075 116.394 33.1342 116.607 33.7202C116.826 34.3061 116.939 34.9453 116.945 35.6378C116.939 36.8333 116.64 37.8454 116.048 38.674C115.456 39.5026 114.61 40.1329 113.509 40.565C112.414 40.997 111.097 41.2131 109.558 41.2131C107.978 41.2131 106.599 40.9793 105.421 40.5117C104.249 40.0442 103.338 39.325 102.687 38.3544C102.042 37.3778 101.716 36.129 101.71 34.608H106.398C106.427 35.1643 106.566 35.6319 106.815 36.0107C107.064 36.3894 107.413 36.6765 107.863 36.8718C108.318 37.0671 108.86 37.1648 109.487 37.1648C110.014 37.1648 110.455 37.0997 110.81 36.9695C111.165 36.8393 111.434 36.6587 111.618 36.4279C111.801 36.1971 111.896 35.9337 111.902 35.6378C111.896 35.3596 111.804 35.117 111.627 34.9098C111.455 34.6967 111.171 34.5073 110.775 34.3416C110.378 34.17 109.842 34.0102 109.168 33.8622L107.357 33.4716C105.747 33.1224 104.477 32.5394 103.548 31.7227C102.625 30.9 102.166 29.7784 102.172 28.358C102.166 27.2038 102.474 26.1947 103.095 25.3306C103.723 24.4606 104.59 23.7829 105.696 23.2976C106.809 22.8123 108.085 22.5696 109.523 22.5696C110.991 22.5696 112.26 22.8152 113.331 23.3065C114.403 23.7977 115.228 24.4902 115.808 25.3839C116.394 26.2717 116.69 27.3104 116.696 28.5H111.973ZM118.325 26.7955V22.8182H134.128V26.7955H128.659V41H123.794V26.7955H118.325ZM152.744 31.9091C152.744 33.9332 152.351 35.6407 151.564 37.0316C150.777 38.4165 149.714 39.4671 148.377 40.1832C147.039 40.8935 145.548 41.2486 143.902 41.2486C142.245 41.2486 140.748 40.8905 139.41 40.1744C138.078 39.4523 137.019 38.3988 136.232 37.0138C135.45 35.623 135.06 33.9214 135.06 31.9091C135.06 29.8849 135.45 28.1804 136.232 26.7955C137.019 25.4046 138.078 24.354 139.41 23.6438C140.748 22.9277 142.245 22.5696 143.902 22.5696C145.548 22.5696 147.039 22.9277 148.377 23.6438C149.714 24.354 150.777 25.4046 151.564 26.7955C152.351 28.1804 152.744 29.8849 152.744 31.9091ZM147.666 31.9091C147.666 30.8201 147.521 29.9027 147.231 29.157C146.947 28.4053 146.524 27.8371 145.962 27.4524C145.405 27.0618 144.719 26.8665 143.902 26.8665C143.085 26.8665 142.396 27.0618 141.834 27.4524C141.277 27.8371 140.854 28.4053 140.564 29.157C140.28 29.9027 140.138 30.8201 140.138 31.9091C140.138 32.9981 140.28 33.9184 140.564 34.6701C140.854 35.4158 141.277 35.984 141.834 36.3746C142.396 36.7594 143.085 36.9517 143.902 36.9517C144.719 36.9517 145.405 36.7594 145.962 36.3746C146.524 35.984 146.947 35.4158 147.231 34.6701C147.521 33.9184 147.666 32.9981 147.666 31.9091ZM155.028 41V22.8182H162.876C164.226 22.8182 165.407 23.0638 166.419 23.555C167.431 24.0463 168.218 24.7536 168.78 25.6768C169.342 26.6001 169.623 27.7069 169.623 28.9972C169.623 30.2992 169.333 31.3971 168.753 32.2908C168.179 33.1845 167.371 33.8593 166.33 34.315C165.294 34.7707 164.084 34.9986 162.699 34.9986H158.011V31.1634H161.704C162.284 31.1634 162.779 31.0923 163.187 30.9503C163.601 30.8023 163.918 30.5685 164.137 30.2489C164.362 29.9293 164.474 29.5121 164.474 28.9972C164.474 28.4763 164.362 28.0531 164.137 27.7276C163.918 27.3962 163.601 27.1535 163.187 26.9996C162.779 26.8398 162.284 26.7599 161.704 26.7599H159.964V41H155.028ZM165.682 32.6548L170.227 41H164.865L160.426 32.6548H165.682ZM171.728 41V22.8182H184.831V26.7955H176.664V29.9205H184.157V33.8977H176.664V37.0227H184.796V41H171.728Z" fill="#1C1C1C"/>
</svg>
