<svg width="26" height="26" viewBox="0 0 26 26" fill="none" xmlns="http://www.w3.org/2000/svg">
<path d="M25.883 20.7233L25.7536 20.3334C25.4471 19.4224 24.4425 18.4723 23.5195 18.2219L20.1037 17.2888C19.1774 17.0368 17.856 17.3757 17.1783 18.0534L15.942 19.2896C11.4492 18.0756 7.92612 14.5524 6.71373 10.0604L7.95004 8.82413C8.62778 8.14639 8.9666 6.82677 8.71458 5.90045L7.78314 2.48292C7.53112 1.55828 6.57925 0.553662 5.66998 0.250537L5.28005 0.119435C4.36904 -0.18369 3.0698 0.122868 2.39211 0.800554L0.542844 2.65151C0.212474 2.98013 0.00132693 3.92008 0.00132693 3.92351C-0.0633521 9.79476 2.23883 15.4514 6.39191 19.6046C10.5348 23.7475 16.1703 26.0463 22.0245 25.9969C22.0551 25.9969 23.0223 25.7891 23.3526 25.4604L25.2019 23.6112C25.8796 22.9335 26.1861 21.6343 25.883 20.7233Z" fill="#C14231"/>
</svg>
