<svg width="26" height="26" viewBox="0 0 26 26" fill="none" xmlns="http://www.w3.org/2000/svg">
<g clip-path="url(#clip0_55_355)">
<path d="M0 13C0 5.82032 5.82032 0 13 0C20.1797 0 26 5.82032 26 13C26 20.1797 20.1797 26 13 26C5.82032 26 0 20.1797 0 13Z" fill="#C14231"/>
<path d="M19.6435 9.78972C19.4841 9.17709 19.0142 8.69468 18.4175 8.53094C17.3362 8.2334 13 8.2334 13 8.2334C13 8.2334 8.66373 8.2334 7.5824 8.53094C6.9857 8.69468 6.5158 9.17709 6.35633 9.78972C6.06665 10.9001 6.06665 13.2167 6.06665 13.2167C6.06665 13.2167 6.06665 15.5333 6.35633 16.6437C6.5158 17.2564 6.9857 17.7388 7.5824 17.9026C8.66373 18.2001 13 18.2001 13 18.2001C13 18.2001 17.3362 18.2001 18.4175 17.9026C19.0142 17.7388 19.4841 17.2564 19.6435 16.6437C19.9333 15.5333 19.9333 13.2167 19.9333 13.2167C19.9333 13.2167 19.9333 10.9001 19.6435 9.78972Z" fill="white"/>
<path d="M11.7 15.5999V11.2666L15.1666 13.4333L11.7 15.5999Z" fill="#C14231"/>
</g>
<defs>
<clipPath id="clip0_55_355">
<rect width="26" height="26" fill="white"/>
</clipPath>
</defs>
</svg>
